<?xml version="1.0" encoding="utf-8"?>
<!-- Generator: Adobe Illustrator 24.1.2, SVG Export Plug-In . SVG Version: 6.00 Build 0)  -->
<svg version="1.1" id="Слой_1" xmlns="http://www.w3.org/2000/svg" xmlns:xlink="http://www.w3.org/1999/xlink" x="0px" y="0px"
	 viewBox="0 0 510 510" style="enable-background:new 0 0 510 510;" xml:space="preserve">
<style type="text/css">
	.st0{fill:none;stroke:#3D316F;stroke-width:10;stroke-miterlimit:10;}
	.st1{fill:#3D316F;}
	.st2{font-family:'Yu Gothic UI';}
	.st3{font-size:72px;}
	.st4{fill:none;}
	.st5{fill:none;stroke:#3D316F;stroke-width:5;stroke-miterlimit:10;}
	.st6{fill:#3D316F;stroke:#3D316F;stroke-width:5;stroke-miterlimit:10;}
	.st7{fill:#FFFFFF;}
</style>
<g id="Слой_1_1_">
	<path class="st0" d="M5,5v500h500V5H5z M226.1,312.6c-1.6,0-1.6-2.5,0-2.5S227.8,312.6,226.1,312.6z M228.1,310.4
		c-1.6,0-1.6-2.5,0-2.5S229.7,310.4,228.1,310.4z"/>
	<text transform="matrix(1 0 0 1 239.7129 203.1484)" class="st1 st2 st3">To</text>
	<text transform="matrix(1 0 0 1 239.7129 275.1484)" class="st1 st2 st3">Do</text>
	<text transform="matrix(1 0 0 1 239.7129 347.1484)" class="st1 st2 st3">List</text>
	<line class="st4" x1="146" y1="321" x2="151" y2="326"/>
</g>
<g id="Слой_2_1_">
	<rect x="189.9" y="155.6" class="st5" width="43.7" height="43.7"/>
	<rect x="189.9" y="228.1" class="st5" width="43.7" height="43.7"/>
	<path class="st6" d="M189.9,300.6v43.7h43.7v-43.7H189.9z M226.2,309.6c-1.6,0-1.6-2.5,0-2.5C227.8,307.1,227.9,309.6,226.2,309.6z
		 M228.2,307.4c-1.6,0-1.6-2.5,0-2.5C229.8,304.9,229.8,307.4,228.2,307.4z"/>
</g>
<g id="Слой_3_1_">
	<path class="st4" d="M153.3,323.8c0.7,1.2,2.2,3.3,2.4,3.6c1.2,1.4,1.6,1.4,1.6,1.4l9-11"/>
	<path class="st4" d="M132.3,312.8"/>
	<g>
		<g>
			<path class="st7" d="M196.7,324.5c3.7,4.5,7.7,8.8,11.9,12.9c0.9,0.9,2.5,0.7,3.1-0.4c5.3-9.3,11.3-18.3,17.9-26.8
				c0.7-0.9,0.8-2,0-2.8c-0.7-0.7-2.2-0.9-2.8,0c-6.8,8.7-13,17.9-18.5,27.6c1.1-0.1,2.1-0.3,3.1-0.4c-4.2-4.1-8.1-8.4-11.9-12.9
				C197.9,319.7,195.1,322.6,196.7,324.5L196.7,324.5z"/>
		</g>
	</g>
</g>
</svg>
